Coordinates
version=1
nRows=11
nColumns=40
inDegrees=yes

Units are S.I. units (second, meters, Newtons, ...)
If the header above contains a line with 'inDegrees', this indicates whether rotational values are in degrees (yes) or radians (no).

endheader
time	pelvis_tilt	pelvis_list	pelvis_rotation	pelvis_tx	pelvis_ty	pelvis_tz	hip_flexion_r	hip_adduction_r	hip_rotation_r	knee_angle_r	knee_angle_r_beta	ankle_angle_r	subtalar_angle_r	mtp_angle_r	hip_flexion_l	hip_adduction_l	hip_rotation_l	knee_angle_l	knee_angle_l_beta	ankle_angle_l	subtalar_angle_l	mtp_angle_l	lumbar_extension	lumbar_bending	lumbar_rotation	arm_flex_r	arm_add_r	arm_rot_r	elbow_flex_r	pro_sup_r	wrist_flex_r	wrist_dev_r	arm_flex_l	arm_add_l	arm_rot_l	elbow_flex_l	pro_sup_l	wrist_flex_l	wrist_dev_l
      0.64000000	     -4.44778141	      2.32476723	     -6.08247160	      1.65011025	      0.95559732	      0.63255629	      3.64493113	      0.27159383	      1.20818019	     42.30798033	      0.73841356	     18.15209178	      0.00000000	      0.00000000	     44.45146310	      0.86549071	      3.56930355	     97.95022361	      1.70955391	      7.72066328	      0.00000000	      0.00000000	     -8.73482139	     -0.08519621	      8.14276014	      2.95306325	    -12.90384159	     20.01327199	     90.49849080	     60.48530877	      0.00000000	      0.00000000	    -22.88839670	    -18.26913014	     19.25988652	     92.19754598	     65.55465051	      0.00000000	      0.00000000
      0.64500000	     -4.69082944	      2.82613567	     -5.82535552	      1.66703423	      0.95940857	      0.63280742	      2.48750435	     -0.41184991	      0.91028367	     41.09017441	      0.71715883	     16.40488686	      0.00000000	      0.00000000	     45.10366833	      1.32943548	      3.18330427	     95.70985878	      1.67045216	      7.82110267	      0.00000000	      0.00000000	     -8.11688316	     -0.79281874	      8.64722998	      3.17584126	    -12.93964092	     19.86329848	     91.35453467	     60.62541097	      0.00000000	      0.00000000	    -23.61146111	    -18.64082199	     19.12381505	     92.28499309	     65.52980699	      0.00000000	      0.00000000
      0.65000000	     -4.54653444	      3.43795181	     -5.52190621	      1.68393756	      0.96391456	      0.63311521	      0.89717898	     -1.17918586	      0.66194457	     39.73311836	      0.69347374	     14.19064261	      0.00000000	      0.00000000	     45.16357235	      2.03841051	      2.81864758	     93.22002266	      1.62699632	      8.02377983	      0.00000000	      0.00000000	     -8.04827574	     -1.66430758	      9.15981578	      3.28094624	    -12.85387923	     19.67639129	     92.98617024	     60.93560240	      0.00000000	      0.00000000	    -24.18048500	    -19.05137492	     18.72728253	     92.68416681	     65.45981151	      0.00000000	      0.00000000
      0.65500000	     -4.67732555	      3.79120736	     -5.22980268	      1.70114423	      0.96789842	      0.63360358	     -0.33309795	     -1.68050315	      0.25970148	     38.53199641	      0.67251020	     12.09798445	      0.00000000	      0.00000000	     45.47817893	      2.38904477	      2.60926247	     90.78293202	      1.58446107	      8.00381490	      0.00000000	      0.00000000	     -7.57908542	     -2.21410439	      9.59270733	      3.30942746	    -12.87352398	     19.63948100	     94.16367906	     61.20769945	      0.00000000	      0.00000000	    -24.97185148	    -19.48906925	     18.44605405	     92.97324109	     65.39983628	      0.00000000	      0.00000000
      0.66000000	     -4.77997448	      4.57165793	     -4.88596111	      1.71865390	      0.97239064	      0.63358424	     -1.55089110	     -2.68045896	     -0.21208989	     37.28498622	      0.65074577	      9.63683971	      0.00000000	      0.00000000	     45.59841978	      3.23145655	      2.09917673	     87.94563877	      1.53494096	      8.04236516	      0.00000000	      0.00000000	     -7.09647673	     -3.22852424	      9.91664393	      3.35159453	    -12.89558840	     19.61883854	     95.00355974	     61.40997017	      0.00000000	      0.00000000	    -25.53296710	    -19.96319269	     18.23180582	     93.28534758	     65.36085908	      0.00000000	      0.00000000
      0.66500000	     -4.74660228	      5.03541500	     -4.46196839	      1.73610152	      0.97709547	      0.63360075	     -3.01521213	     -3.30505918	     -0.86836026	     35.85832677	      0.62584587	      6.81982532	      0.00000000	      0.00000000	     45.46794732	      3.80842116	      1.85254410	     85.06943293	      1.48474170	      7.91374905	      0.00000000	      0.00000000	     -6.82250876	     -3.91331278	     10.12946644	      3.42570136	    -12.95726874	     19.68994965	     95.84041842	     61.62237011	      0.00000000	      0.00000000	    -26.14867390	    -20.36191318	     17.93598087	     93.46897647	     65.29000323	      0.00000000	      0.00000000
      0.67000000	     -4.97731213	      5.68474972	     -4.01321363	      1.75387884	      0.98112559	      0.63346400	     -4.10125874	     -4.10285237	     -1.52721143	     34.60717142	      0.60400909	      4.52262424	      0.00000000	      0.00000000	     45.57652044	      4.56205567	      1.48162233	     82.15815206	      1.43393026	      7.89878437	      0.00000000	      0.00000000	     -6.17805433	     -4.77279832	     10.36515948	      3.39427486	    -12.93877203	     19.78887856	     96.62582713	     61.82721800	      0.00000000	      0.00000000	    -26.84208491	    -20.80412464	     17.70866292	     93.63711712	     65.23389702	      0.00000000	      0.00000000
      0.67500000	     -5.09762318	      6.10576487	     -3.46653058	      1.77141066	      0.98565758	      0.63334533	     -5.32062248	     -4.61553756	     -2.38618854	     33.33115645	      0.58173842	      2.06652681	      0.00000000	      0.00000000	     45.43581592	      5.16856544	      1.34129430	     79.06692665	      1.37997820	      7.76657054	      0.00000000	      0.00000000	     -5.72495836	     -5.40844617	     10.40991091	      3.41951707	    -12.90008958	     19.83517610	     97.21858969	     61.99066882	      0.00000000	      0.00000000	    -27.54638969	    -21.22230459	     17.41921934	     93.84484600	     65.17319652	      0.00000000	      0.00000000
      0.68000000	     -5.43177419	      6.60529331	     -3.06193440	      1.78916947	      0.98924855	      0.63324587	     -6.25213827	     -5.16984184	     -2.99198583	     32.13490618	      0.56085992	     -0.46892254	      0.00000000	      0.00000000	     45.47792905	      5.72881413	      1.02833423	     75.97922679	      1.32608767	      7.86011591	      0.00000000	      0.00000000	     -4.99609640	     -6.12146403	     10.65713251	      3.26442357	    -12.93779558	     19.92772045	     97.82117481	     62.13612271	      0.00000000	      0.00000000	    -28.45342882	    -21.73908309	     17.10560306	     93.94632677	     65.10501163	      0.00000000	      0.00000000
      0.68500000	     -5.56554967	      7.19077938	     -2.57191508	      1.80726453	      0.99344929	      0.63300986	     -7.45760460	     -5.83075195	     -3.69876030	     30.92352309	      0.53971729	     -2.70443565	      0.00000000	      0.00000000	     45.10899864	      6.44656337	      0.67153960	     72.60723862	      1.26723537	      7.84213620	      0.00000000	      0.00000000	     -4.46588967	     -6.94121934	     10.76372677	      3.14743880	    -12.95666034	     19.99694338	     98.25379466	     62.25518431	      0.00000000	      0.00000000	    -29.08192522	    -22.00086951	     16.79808528	     94.19975854	     65.05827412	      0.00000000	      0.00000000
      0.69000000	     -5.46943049	      7.78280863	     -2.06664780	      1.82507174	      0.99739043	      0.63286586	     -8.91724380	     -6.40943809	     -4.46251006	     29.78882013	      0.51991299	     -4.62465033	      0.00000000	      0.00000000	     44.47504680	      7.21402392	      0.39636667	     69.19874902	      1.20774601	      7.67615721	      0.00000000	      0.00000000	     -4.33562218	     -7.77510743	     10.67782070	      3.18903829	    -12.86606166	     20.08247730	     98.96683034	     62.45420708	      0.00000000	      0.00000000	    -29.84823663	    -22.34913862	     16.21004543	     94.81284410	     64.97477307	      0.00000000	      0.00000000
